# xmcd
#
# Track frame offsets:
# 150
# 2295
# 20164
# 37314
# 58723
# 73007
# 87393
# 100868
# 113555
# 128368
# 143179
# 159015
# 170964
# 185411
# 199477
# 213169
# 226023
# 245003
# 260014
# 275697
# 289548
# 303054
# 321246
#
# Disc length: 4539 seconds
#
#
# Revision: 0
# Processed by: cddbd v1.5.1PL2 Copyright (c) Steve Scherf et al.
# Submitted via: FreeRIP 2.943 
#
DISCID=4711b917
DTITLE=DJ Josmar Festa Pronta Vol. 05 - 
DYEAR=1900
DGENRE=Country
TTITLE0=Abertura
TTITLE1=Página Virada - Aviões do Forró
TTITLE2=Xoxoquia - Trio Quebra Galho
TTITLE3=Só Ficar - Avióes do Forró
TTITLE4=Alô Meu Amor - Forró Magia
TTITLE5=To Mal - Banda Genéricos
TTITLE6=Ai Ai Ai - Avióes do Forró
TTITLE7=Alguém Viu Ela Ai - Trio Parada Dura
TTITLE8=Eu Não Vou Mais Chorar - Aviões do Forró
TTITLE9=Tchau Pra Você - Banda Calypso
TTITLE10=Swing Louco - Banda Tucumã
TTITLE11=Pra Mim Conquista - Aviões do Forró
TTITLE12=Tô Carente - Banda Calypso
TTITLE13=Só Levei Fora - Forró Saborear
TTITLE14=Cê Ta Querendo o Que? - Rick and Renner
TTITLE15=Piripompom - Toque Novo
TTITLE16=Sua Mitidinha - Toque Novo
TTITLE17=Dona Gigi - Os Caçadores
TTITLE18=Vem Gatinha
TTITLE19=Posição de Rã - MC Frank
TTITLE20=Diretoria - MC Sahira
TTITLE21=Don´t Lie - Black Eyed Peas
TTITLE22=Beat Goes On - DJ Ross Dy
EXTD=
EXTT0=
EXTT1=
EXTT2=
EXTT3=
EXTT4=
EXTT5=
EXTT6=
EXTT7=
EXTT8=
EXTT9=
EXTT10=
EXTT11=
EXTT12=
EXTT13=
EXTT14=
EXTT15=
EXTT16=
EXTT17=
EXTT18=
EXTT19=
EXTT20=
EXTT21=
EXTT22=
PLAYORDER=
